<?xml version="1.0" encoding="utf-8"?>
<!-- Generator: Adobe Illustrator 16.0.3, SVG Export Plug-In . SVG Version: 6.00 Build 0)  -->
<!DOCTYPE svg PUBLIC "-//W3C//DTD SVG 1.1//EN" "http://www.w3.org/Graphics/SVG/1.1/DTD/svg11.dtd">
<svg version="1.1" id="Capa_1" xmlns="http://www.w3.org/2000/svg" xmlns:xlink="http://www.w3.org/1999/xlink" x="0px" y="0px"
	 width="1000px" height="1000px" viewBox="0 0 1000 1000" enable-background="new 0 0 1000 1000" xml:space="preserve">
<g id="Capa_2">
	<circle fill="#4EDBF2" cx="500" cy="500" r="500"/>
</g>
<g id="Capa_1_1_">
	<g>
		<g>
			<g>
				<defs>
					<circle id="SVGID_1_" cx="500" cy="499.939" r="500"/>
				</defs>
				<clipPath id="SVGID_2_">
					<use xlink:href="#SVGID_1_"  overflow="visible"/>
				</clipPath>
				<g clip-path="url(#SVGID_2_)">
					<g>
						<path fill="#472020" d="M316.759,493.179c0,0-28.371,71.572-12.432,95.813c15.938,24.245,46.604-23.954,46.604-23.954
							s-24.535,87.631,9.642,96.396c34.176,8.766,70.679-66.51,70.679-66.51S365.833,461.639,316.759,493.179z"/>
					</g>
					<g>
						<path fill="#472020" d="M685.318,493.179c0,0,28.374,71.572,12.437,95.813c-15.942,24.245-46.615-23.954-46.615-23.954
							s24.543,87.631-9.637,96.396c-34.172,8.766-70.674-66.51-70.674-66.51S636.246,461.639,685.318,493.179z"/>
					</g>
					<g>
						<g>
							<path fill="#0075CF" d="M966.641,999.939H33.359c0,0,0.843-10.518,3.558-25.833c0.93-5.188,2.053-10.936,3.453-17.021
								c2.594-11.354,6.082-23.888,10.726-36.098c2.191-5.81,4.643-11.521,7.397-17.021c7.253-14.57,16.506-27.556,28.284-36.125
								c3.819-2.804,7.922-5.115,12.303-6.869c5.856-2.345,13.671-5.815,22.977-10.143c19.472-9.05,45.445-21.875,73.609-36.105
								c10.604-5.367,21.506-10.92,32.492-16.547c0.314-0.158,0.615-0.313,0.929-0.472c23.713-12.142,47.758-24.604,69.841-36.122
								c7.238-3.782,14.266-7.449,20.996-10.969c3.96-2.068,7.799-4.085,11.531-6.046c0.578-0.319,1.156-0.617,1.734-0.909
								c30.229-15.863,52.455-27.642,57.658-30.425c0.02-0.021,0.035-0.021,0.056-0.021c0.154-0.085,0.314-0.16,0.438-0.231
								c0.456-0.236,0.686-0.364,0.686-0.364l7.132,1.612c8.921,2.002,17.876,3.716,26.868,5.137
								c8.884,1.437,17.806,2.59,26.727,3.469c49.264,4.837,99.104,1.455,147.479-10.164c0.065-0.021,0.157-0.034,0.227-0.054
								c0,0,22.188,11.426,54.736,28.023c2.503,1.275,5.063,2.593,7.691,3.929c10.393,5.295,21.678,11.021,33.508,17.015
								c10.707,5.418,21.836,11.045,33.176,16.759c8.714,4.376,17.543,8.827,26.378,13.245c4.086,2.051,8.187,4.085,12.25,6.118
								c11.606,5.802,23.12,11.512,34.284,17.019c28.877,14.209,55.445,27.044,75.219,36.105
								c9.445,4.325,17.349,7.798,23.223,10.143c4.377,1.754,8.484,4.065,12.305,6.869c11.774,8.569,21.029,21.555,28.283,36.125
								c2.749,5.5,5.2,11.211,7.396,17.021c4.645,12.21,8.13,24.743,10.729,36.098c1.382,6.086,2.522,11.831,3.453,17.02
								C965.802,989.424,966.641,999.939,966.641,999.939z"/>
						</g>
					</g>
					<g display="none">
						<g display="inline">
							<path fill="#0056A8" d="M696.394,761.588H298.928c11.48-5.992,22.435-11.72,32.527-17.015h331.432
								C673.277,749.868,684.563,755.596,696.394,761.588z"/>
						</g>
						<g display="inline">
							<path fill="#0056A8" d="M802.48,814.729H195.666c10.604-5.367,21.506-10.92,32.492-16.547
								c0.314-0.156,0.615-0.313,0.929-0.472h539.109C779.805,803.512,791.316,809.222,802.48,814.729z"/>
						</g>
						<g display="inline">
							<path fill="#0056A8" d="M913.227,867.846H86.777c3.819-2.804,7.922-5.113,12.303-6.869
								c5.856-2.345,13.671-5.815,22.977-10.143H877.7c9.446,4.325,17.349,7.798,23.223,10.143
								C905.299,862.73,909.406,865.042,913.227,867.846z"/>
						</g>
						<g display="inline">
							<path fill="#0056A8" d="M948.903,920.989H51.096c2.191-5.81,4.643-11.521,7.397-17.021H941.51
								C944.259,909.471,946.71,915.182,948.903,920.989z"/>
						</g>
						<g display="inline">
							<path fill="#0056A8" d="M963.086,974.106H36.917c0.93-5.188,2.053-10.936,3.453-17.021h919.263
								C961.014,963.173,962.155,968.918,963.086,974.106z"/>
						</g>
					</g>
					<g>
						<path fill="#0056A8" d="M655.193,740.646c-10.693,37.68-56.942,96.912-155.191,96.912
							c-101.651,0-157.963-54.901-180.078-86.939c3.96-2.068,7.799-4.085,11.531-6.046c0.578-0.319,1.156-0.617,1.734-0.909
							c30.229-15.863,52.455-27.641,57.658-30.425c0.02-0.021,0.035-0.021,0.056-0.021c0.154-0.085,0.314-0.16,0.438-0.231
							c0.456-0.236,0.686-0.364,0.686-0.364l7.132,1.613c8.921,2.001,17.876,3.715,26.868,5.136
							c8.884,1.437,17.806,2.59,26.727,3.469c49.264,4.837,99.104,1.455,147.479-10.164c0.065-0.021,0.157-0.034,0.227-0.054
							C600.457,712.621,622.645,724.047,655.193,740.646z"/>
					</g>
					<g>
						<g>
							<g>
								<g>
									<g>
										<g>
											<g>
												<path fill="#FFB8A1" d="M605.207,736.401c0,0-18.304,57.532-102.407,57.532c-98.093,0-121.184-52.304-121.184-52.304
													c8.522-22.594,14.381-43.512,18.33-62.213h0.027c7.268-34.256,8.288-61.167,7.846-77.668l172.336-6.829
													c1.596,14.593,4.186,31.774,7.116,49.065C595.065,689.884,605.207,736.401,605.207,736.401z"/>
											</g>
										</g>
									</g>
								</g>
							</g>
							<g>
								<g>
									<g>
										<g>
											<g>
												<path fill="#3F2037" d="M587.271,643.987c-26.705,18.564-85.072,46.206-187.298,35.432
													c7.268-34.256,8.288-61.167,7.846-77.668l172.336-6.829C581.751,609.515,584.341,626.696,587.271,643.987z"/>
											</g>
										</g>
									</g>
								</g>
							</g>
						</g>
						<g>
							<g>
								<g>
									<g>
										<g>
											<g>
												<g>
													<path fill="#FFB8A1" d="M342.035,377.002c0,0-53.336-72.593-94.818-29.634
														c-41.484,42.966,38.519,192.604,111.113,160.008L342.035,377.002z"/>
												</g>
											</g>
										</g>
									</g>
								</g>
								<g>
									<g>
										<g>
											<g>
												<g>
													<path fill="#FF8A8A" d="M316.595,462.79c-1.81,0-3.387-1.336-3.643-3.177c-7.015-50.438-47.103-81.396-47.507-81.707
														c-1.622-1.23-1.938-3.542-0.709-5.164c1.233-1.619,3.542-1.932,5.167-0.701c1.746,1.327,42.919,33.133,50.345,86.555
														c0.283,2.021-1.125,3.88-3.141,4.158C316.938,462.775,316.764,462.79,316.595,462.79z"/>
												</g>
											</g>
										</g>
									</g>
								</g>
								<g>
									<g>
										<g>
											<g>
												<g>
													<path fill="#FF8A8A" d="M305.427,426.565c-1.184,0-2.346-0.571-3.059-1.622c-5.353-7.919-21.363-8.724-27.055-8.37
														c-2.046,0.146-3.779-1.415-3.908-3.449c-0.128-2.032,1.418-3.779,3.447-3.904c1.015-0.063,24.837-1.396,33.619,11.593
														c1.146,1.688,0.7,3.979-0.985,5.12C306.854,426.358,306.135,426.565,305.427,426.565z"/>
												</g>
											</g>
										</g>
									</g>
								</g>
							</g>
						</g>
						<g>
							<g>
								<g>
									<g>
										<g>
											<g>
												<g>
													<path fill="#FFB8A1" d="M671.895,377.002c0,0,53.338-72.593,94.821-29.634
														c41.485,42.966-38.521,192.604-111.115,160.008L671.895,377.002z"/>
												</g>
											</g>
										</g>
									</g>
								</g>
								<g>
									<g>
										<g>
											<g>
												<g>
													<path fill="#FF8A8A" d="M697.336,462.79c-0.172,0-0.338-0.014-0.513-0.036c-2.02-0.277-3.425-2.139-3.142-4.158
														c7.422-53.422,48.595-85.228,50.347-86.555c1.622-1.23,3.926-0.918,5.155,0.701c1.235,1.622,0.917,3.933-0.696,5.164
														c-0.405,0.312-40.512,31.373-47.514,81.707C700.726,461.453,699.142,462.79,697.336,462.79z"/>
												</g>
											</g>
										</g>
									</g>
								</g>
								<g>
									<g>
										<g>
											<g>
												<g>
													<path fill="#FF8A8A" d="M708.504,426.565c-0.711,0-1.429-0.207-2.06-0.634c-1.688-1.142-2.132-3.434-0.989-5.118
														c8.788-12.989,32.61-11.654,33.625-11.595c2.026,0.125,3.567,1.873,3.439,3.899c-0.114,2.033-1.893,3.593-3.896,3.454
														c-5.729-0.338-21.729,0.483-27.065,8.37C710.843,425.994,709.686,426.565,708.504,426.565z"/>
												</g>
											</g>
										</g>
									</g>
								</g>
							</g>
						</g>
						<g>
							<g>
								<g>
									<g>
										<g>
											<path fill="#FFB8A1" d="M549.465,165.379c-149.192-36.404-252.377,73.676-238.584,243.776
												c8.757,108.039,63.863,243.665,191.91,246.682c133.446,3.145,203.122-124.973,203.122-274.557
												c0-114.457-38.453-178.083-135.754-209.981C563.417,169.085,556.513,167.1,549.465,165.379z"/>
										</g>
									</g>
								</g>
							</g>
						</g>
						<path display="none" fill="#472020" d="M290.252,253.662c0,0-29.496,68.216-18.854,80.485
							c9.064,10.45,23.002,3.294,23.002,3.294s-5.721,74.542,25.887,77.458c31.603,2.924,27.661-136.844,27.661-136.844
							s52.298,1.461,42.501-41.917c0,0,34.102-35.694,131.076-32.166c96.974,3.528,109.023,30.413,109.023,30.413
							s-4.371,41.804,30.964,47.317c0,0-20.446,126.839,16.938,136.154c37.396,9.313,35.54-77.91,35.54-77.91
							s16.454,0.181,22.896-6.164c15.354-15.119-9.705-97.059-50.837-150.806C641.024,124.146,416.152,12.393,290.252,253.662z"/>
						<g>
							<g>
								<g>
									<g>
										<g>
											<path fill="#472020" d="M233.546,261.813c9.359,89.679,63.477,92.591,83.686,81.75c3.275-1.758,3.497,24.43,3.497,24.43
												s0.638,32.804,12.348,31.851c20.105-3.542-9.016-76.927,10.772-95.655c28.98-11.923,22.07-72.274,22.07-72.274
												s61.901-22.882,142.224-23.883c80.324-1,130.885,16.359,130.885,16.359s-6.754,51.128,25.062,63.435
												c38.792,13.122,14.631,65.184,34.82,93.755c11.72,4.603,18.661-10.405,11.206-41.732
												c83.166-64.669-44.753-143.905-29.801-136.168c0,0,11.479-120.292-163.219-112.502
												C273.948,133.145,330.166,288.239,233.546,261.813z"/>
										</g>
									</g>
								</g>
							</g>
						</g>
						<g display="none">
							<g display="inline">
								<path fill="#FF4F4E" d="M734.69,237.78c0,0-9.959-2.206-27.919-5.136c-1.76-0.298-3.575-0.578-5.487-0.897
									c-18.314-2.855-43.5-6.237-73.957-8.901c-1.773-0.159-3.562-0.311-5.366-0.47c-21.764-1.788-46.076-3.21-72.384-3.821
									c-1.753-0.033-3.506-0.073-5.272-0.105c-22.657-0.419-46.737-0.226-71.905,0.844c-1.752,0.065-3.505,0.138-5.278,0.225
									c-23.429,1.101-47.755,2.977-72.712,5.833c-1.788,0.192-3.574,0.405-5.362,0.631c-24.377,2.895-49.318,6.749-74.571,11.723
									c-1.821,0.353-3.646,0.724-5.485,1.11c-9.534,1.926-19.103,4.025-28.704,6.304c0,0,11.231-80.073,75.778-134.771
									c3.509-2.963,7.168-5.873,10.99-8.656c17.538-12.867,38.521-23.78,63.581-31.142c2.104-0.617,4.224-1.208,6.398-1.793
									c13.756-3.607,28.724-6.166,44.969-7.427h0.021c1.769-0.139,3.536-0.246,5.36-0.372c5.802-0.333,11.763-0.505,17.874-0.505
									c8.345,0,16.391,0.299,24.154,0.877c1.822,0.14,3.628,0.279,5.394,0.452c16.409,1.507,31.493,4.278,45.358,8.064
									c2.173,0.579,4.298,1.196,6.396,1.839h0.021c25.408,7.693,46.546,18.807,64.123,31.721l0.02,0.021
									c3.8,2.771,7.414,5.626,10.859,8.569c0,0,0.021,0,0.021,0.02C723.488,164.362,734.69,237.78,734.69,237.78z"/>
							</g>
							<g display="inline">
								<g>
									<g>
										<path fill="#C42C31" d="M367.053,101.693c-21.226,36.151-44.642,85.229-52.579,136.013
											c-1.489,9.393-2.437,18.859-2.733,28.306l-5.258-0.161c0.297-9.02,1.154-18.068,2.506-27.035
											c7.026-47.112,27.232-92.781,47.072-128.467C359.569,107.386,363.229,104.477,367.053,101.693z"/>
									</g>
								</g>
								<g>
									<g>
										<path fill="#C42C31" d="M437.032,68.758c-13.392,32.775-34.755,92.554-42.625,156.593
											c-1.646,13.424-2.697,27.042-2.962,40.627l-5.254-0.106c0.261-13.338,1.261-26.712,2.854-39.89
											c7.518-62.69,27.955-121.454,41.589-155.432C432.737,69.935,434.855,69.343,437.032,68.758z"/>
									</g>
								</g>
								<g>
									<g>
										<path fill="#C42C31" d="M487.382,60.959c-4.204,29.832-11.95,91.347-14.982,158.333
											c-0.699,15.365-1.141,31.016-1.246,46.653l-5.26-0.041c0.107-15.545,0.546-31.107,1.228-46.387
											c2.999-66.529,10.64-127.743,14.882-158.187h0.021C483.788,61.192,485.558,61.085,487.382,60.959z"/>
									</g>
								</g>
								<g>
									<g>
										<path fill="#C42C31" d="M550.86,265.905l-5.253,0.041c-0.106-15.917-0.586-31.865-1.305-47.497
											c-3.05-66.37-10.688-127.271-14.895-157.118c1.822,0.14,3.628,0.279,5.394,0.452
											c4.239,30.424,11.779,90.941,14.773,156.771C550.303,234.153,550.756,250.049,550.86,265.905z"/>
									</g>
								</g>
								<g>
									<g>
										<path fill="#C42C31" d="M630.569,265.873l-5.265,0.106c-0.276-14.601-1.467-29.216-3.346-43.603
											c-8.047-62.218-28.601-120.072-41.799-152.529c2.173,0.579,4.298,1.196,6.396,1.839h0.021
											c13.386,33.561,33.014,90.344,40.746,151.16C629.126,237.042,630.291,251.466,630.569,265.873z"/>
									</g>
								</g>
								<g>
									<g>
										<path fill="#C42C31" d="M710.276,265.851l-5.265,0.161c-0.359-11.444-1.679-22.905-3.729-34.265
											c-8.639-47.861-30.438-93.777-50.563-128.319c3.801,2.769,7.414,5.626,10.859,8.569c0,0,0.021,0,0.021,0.02
											c18.669,33.858,37.485,76.448,45.169,120.628C708.693,243.653,709.927,254.76,710.276,265.851z"/>
									</g>
								</g>
							</g>
							<g display="inline">
								<path fill="#C42C31" d="M269.081,245.126c0,0-12.453,26.499,2.316,65.425c0,0,148.82-89.013,470.428-5.771
									c0,0,20.139-22.786,0-63.972C741.825,240.809,493.623,131.911,269.081,245.126z"/>
							</g>
						</g>
						<g>
							<g>
								<path fill="#FF8A8A" d="M513.44,504.911c-6.343,0-13.29-1.661-20.943-4.981c-2.152-0.93-3.426-3.177-3.123-5.501
									l10.669-81.935c0.375-2.875,3.027-4.908,5.893-4.535c2.886,0.378,4.909,3.015,4.537,5.899l-10.144,77.888
									c10.463,3.84,18.54,3.5,25.209-0.997c2.412-1.628,5.68-0.99,7.3,1.421c1.621,2.404,0.984,5.673-1.421,7.3
									C526.036,503.099,520.07,504.911,513.44,504.911z"/>
							</g>
						</g>
						<g>
							<g>
								<path fill="#FF8A8A" d="M503.698,558.924c-30.121,0-52.978-12.429-53.365-12.646c-2.532-1.418-3.438-4.617-2.024-7.156
									c1.418-2.537,4.616-3.44,7.154-2.026c2.547,1.41,60.756,32.776,111.135-13.83c2.134-1.971,5.454-1.847,7.43,0.293
									c1.975,2.125,1.847,5.454-0.286,7.428C550.376,552.602,525.186,558.924,503.698,558.924z"/>
							</g>
						</g>
						<g>
							<g>
								<path fill="#FF8A8A" d="M512.226,588.99c-11.896,0-21.431-2.903-22.094-3.109c-2.772-0.862-4.316-3.813-3.454-6.589
									c0.866-2.764,3.812-4.304,6.58-3.455l0,0c0.234,0.074,23.551,7.115,39.953-2.158c2.524-1.428,5.731-0.539,7.161,1.985
									c1.435,2.532,0.545,5.74-1.987,7.169C529.995,587.575,520.537,588.99,512.226,588.99z"/>
							</g>
						</g>
						<g>
							<g>
								<path fill="#3F2037" d="M401.202,355.373c11.319-6.084,27.845-13.59,43.913-15.935c8.633-1.262,14.062-9.945,11.117-18.164
									l-0.592-1.654c-2.127-5.939-8.021-9.658-14.285-8.994c-14.343,1.521-39.747,6.543-56.318,23.063
									c-3.591,3.574-4.836,8.889-3.315,13.726l0,0C384.293,355.586,393.655,359.425,401.202,355.373z"/>
							</g>
						</g>
						<g>
							<g>
								<path fill="#3F2037" d="M618.797,355.373c-11.318-6.084-27.847-13.59-43.915-15.935c-8.637-1.262-14.063-9.945-11.12-18.164
									l0.598-1.654c2.129-5.939,8.021-9.658,14.28-8.994c14.346,1.521,39.746,6.543,56.321,23.063
									c3.593,3.574,4.835,8.889,3.313,13.726l0,0C635.702,355.586,626.339,359.425,618.797,355.373z"/>
							</g>
						</g>
						<g opacity="0.5">
							<g>
								<path fill="#FF8A8A" d="M439.716,449.913c0,12.895-23.81,23.35-53.174,23.35c-29.369,0-53.176-10.455-53.176-23.35
									c0-12.899,23.807-23.348,53.176-23.348C415.906,426.565,439.716,437.014,439.716,449.913z"/>
							</g>
						</g>
						<g opacity="0.5">
							<g>
								<path fill="#FF8A8A" d="M689.894,449.913c0,12.895-23.804,23.35-53.176,23.35c-29.367,0-53.175-10.455-53.175-23.35
									c0-12.899,23.808-23.348,53.175-23.348C666.09,426.565,689.894,437.014,689.894,449.913z"/>
							</g>
						</g>
						<g>
							<g>
								<g>
									<g>
										<g>
											<g>
												<g>
													<path fill="#472020" d="M443.433,395.53c0.244,14.243-5.006,25.887-11.729,26.006
														c-6.729,0.113-12.387-11.34-12.631-25.581c-0.247-14.249,5.001-25.889,11.727-26.008
														C437.529,369.827,443.182,381.287,443.433,395.53z"/>
												</g>
											</g>
										</g>
									</g>
								</g>
							</g>
							<g>
								<g>
									<g>
										<g>
											<g>
												<g>
													<path fill="#472020" d="M570.744,395.53c-0.247,14.243,4.999,25.887,11.729,26.006
														c6.726,0.113,12.387-11.34,12.628-25.581c0.246-14.249-5.001-25.889-11.729-26.008
														C576.643,369.827,570.994,381.287,570.744,395.53z"/>
												</g>
											</g>
										</g>
									</g>
								</g>
							</g>
						</g>
					</g>
				</g>
			</g>
		</g>
	</g>
</g>
</svg>
