<?xml version="1.0" encoding="utf-8"?>
<!-- Generator: Adobe Illustrator 16.0.3, SVG Export Plug-In . SVG Version: 6.00 Build 0)  -->
<!DOCTYPE svg PUBLIC "-//W3C//DTD SVG 1.1//EN" "http://www.w3.org/Graphics/SVG/1.1/DTD/svg11.dtd">
<svg version="1.1" xmlns="http://www.w3.org/2000/svg" xmlns:xlink="http://www.w3.org/1999/xlink" x="0px" y="0px" width="1000px"
	 height="1000px" viewBox="0 0 1000 1000" enable-background="new 0 0 1000 1000" xml:space="preserve">
<g id="Fondo" display="none">
	<rect x="-0.5" y="0.5" display="inline" fill="#0DD124" stroke="#000000" stroke-miterlimit="10" width="1000" height="1000"/>
	<path display="inline" fill="none" stroke="#000000" stroke-miterlimit="10" d="M309.667,760.333
		c38.409,11.495-2.214,101.144,25,100.077c23.813-0.933,5.642-82.107,13.333-100.077"/>
</g>
<g id="Capa_3">
	<path fill="#050000" d="M493.999,990.667c-65.47,0-128.987-12.825-188.786-38.118c-57.754-24.428-109.621-59.396-154.16-103.935
		c-44.538-44.538-79.507-96.404-103.935-154.159C21.825,634.655,9,571.139,9,505.669c0-65.471,12.825-128.987,38.118-188.787
		c24.428-57.754,59.397-109.621,103.935-154.159c44.539-44.539,96.405-79.507,154.16-103.936
		C365.012,33.495,428.528,20.67,493.999,20.67s128.987,12.825,188.787,38.118c57.755,24.428,109.621,59.397,154.159,103.936
		c44.539,44.538,79.507,96.405,103.935,154.159c25.293,59.799,38.118,123.316,38.118,188.787c0,65.47-12.825,128.986-38.118,188.786
		c-24.428,57.755-59.396,109.621-103.935,154.159c-44.538,44.539-96.404,79.507-154.159,103.935
		C622.985,977.842,559.469,990.667,493.999,990.667z"/>
	<circle id="Circulo" fill="#B51D1D" cx="513.399" cy="485.298" r="475.299"/>
</g>
<g id="Capa_1">
	<g>
		<polygon points="417.521,416 403.348,409.994 370,372.548 370,397.978 351.475,416 303.542,416 284,397.978 284,275.033 
			303.542,256 369.497,256 384.055,262.93 405,288.194 405,275.033 423.468,256 471.493,256 490,275.033 490,397.978 471.493,416 		
			"/>
		<path d="M423.468,275.033h48.025v122.945h-53.972l-66.046-75.103v75.103h-47.934V275.033h65.955l53.971,65.131V275.033z"/>
		<polygon points="493.773,416 475,398.161 475,275.216 493.773,256 637.666,256 657,275.216 657,306.684 649.133,314.551 
			657,322.418 657,350.867 649.133,358.734 657,366.602 657,398.161 637.666,416 		"/>
		<path d="M493.773,275.216h143.893v31.468h-95.96v15.734h95.96v28.449h-95.96v15.734h95.96v31.559H493.773V275.216z"/>
		<polygon points="800.637,416 783.483,405.244 773.651,383.071 763.82,405.132 746.666,416 689.677,416 672.521,405.244 
			618.551,282.282 635.704,256 689.677,256 707.272,268.544 718.154,298.44 729.077,268.466 746.666,256 800.637,256 
			818.233,268.544 829.115,298.44 840.038,268.466 857.627,256 911.599,256 928.753,282.506 874.782,405.124 857.627,416 		"/>
		<path d="M857.627,275.216h53.972l-53.972,122.945h-56.99l-26.985-61.472l-26.985,61.472h-56.989l-53.973-122.945h53.973
			l28.449,77.847l28.54-77.847h53.971l28.45,77.847L857.627,275.216z"/>
		<polygon points="278.228,567 259,548.037 259,512.947 194.747,437.563 209.255,407 266.245,407 280.765,413.574 302.213,439.72 
			323.732,413.637 338.237,407 395.136,407 409.448,437.563 345,512.947 345,548.037 326.162,567 		"/>
		<path d="M302.195,469.184l36.042-44.092h56.899l-68.974,80.958v41.988h-47.934v-41.988l-68.973-80.958h56.99L302.195,469.184z"/>
		<path d="M458.726,570c-38.392,0-65.518-8.795-82.873-26.254C362.612,530.426,356,512.479,356,490.789v-8.89
			c0-21.643,6.61-39.406,19.848-52.722c17.331-17.434,44.446-25.946,82.865-26.021c29.479,0,51.866,5,68.854,15.286
			C549.561,431.756,561,453.699,561,481.899v8.965c0,21.619-6.396,39.568-19.641,52.89C524.012,561.207,497.134,570,458.8,570
			H458.726z M441.945,490.567c0.828,0.557,4.366,2.399,16.953,2.599c12.525-0.2,16.119-2.039,16.94-2.593
			c0.089-0.325,0.162-1.085,0.162-2.474v-3.53c0-1.322-0.13-2.061-0.216-2.387c-0.847-0.563-4.54-2.388-17.018-2.587
			c-12.541,0.199-15.979,2.027-16.832,2.593c-0.086,0.328,0.065,1.064,0.065,2.381v3.53
			C442,489.482,441.857,490.241,441.945,490.567z"/>
		<path d="M542.647,481.899v8.965c0.183,46.47-37.688,59.917-83.884,60.008c-46.288-0.091-84.159-13.538-83.976-60.008v-8.965
			c-0.183-46.562,37.688-59.917,83.976-60.009C505.051,421.89,542.647,435.429,542.647,481.899z M494.713,484.826
			c0.274-20.033-16.375-23.692-35.95-23.966c-19.667,0.274-36.316,3.933-36.042,23.966v3.019
			c-0.274,20.125,16.375,23.784,36.042,24.059c19.576-0.274,36.225-3.934,35.95-24.059V484.826z"/>
		<path d="M665.094,567l-14.833-7.29L632.741,537H617v10.945L599.14,567h-47.934L532,547.945V425l18.971-18.734l119.063-0.002
			c17.051,0,33.884,7.096,46.079,19.469c12.272,12.451,18.94,28.737,18.73,45.871c-0.023,12.9-3.54,24.786-10.481,35.328
			c-2.473,3.778-5.251,7.231-8.336,10.349l14.9,19.33L716.139,567H665.094z"/>
		<path d="M669.668,425c25.34-0.274,46.836,21.04,46.471,46.47c0,9.239-2.47,17.655-7.41,25.157
			c-4.848,7.409-11.343,13.081-19.393,16.831l26.803,34.487h-51.045L641.95,517.94H599.14v30.005h-47.934V425H669.668z
			 M599.14,460.951v20.948h58.454c2.927,0,5.396-1.006,7.409-3.019c2.104-2.104,3.11-4.574,3.11-7.41
			c0-5.854-4.666-10.52-10.52-10.52H599.14z"/>
		<polygon points="839.317,567 826.549,561.77 792,529.401 792,547.854 773.271,567 725.337,567 706,547.854 706,424.909 
			725.337,407 773.271,407 792,424.909 792,443.36 826.549,411.61 839.317,407 902.254,407 915.257,438.809 865.486,486.587 
			915.257,534.675 902.254,567 		"/>
		<path d="M773.271,505.865v41.988h-47.935V424.909h47.935v41.988h20.947l45.099-41.988h62.937l-63.76,61.473l63.76,61.472h-62.937
			l-45.099-41.988H773.271z"/>
		<path d="M123.398,716L105,697.912V574.968l18.566-18.735l118.862-0.003c17.05,0,33.781,7.096,45.977,19.469
			c12.242,12.42,18.856,28.652,18.682,45.738c0.175,17.083-6.486,33.332-18.756,45.78c-12.169,12.348-28.877,19.108-45.828,19.109
			c-0.254,0-0.512-0.326-0.767-0.326H190v11.912L171.332,716H123.398z"/>
		<path d="M241.861,574.968c25.339-0.275,46.836,21.039,46.47,46.47c0.366,25.339-21.131,46.836-46.47,46.471h-70.529v30.004
			h-47.934V574.968H241.861z M229.877,631.865c2.836,0,5.306-1.006,7.318-3.019c2.104-2.104,3.11-4.573,3.11-7.409
			c0-2.928-1.006-5.396-3.11-7.41c-2.013-2.104-4.482-3.109-7.318-3.109h-58.545v20.947H229.877z"/>
		<path d="M377.9,719c-38.392,0-65.105-8.357-82.46-25.815c-13.241-13.32-19.44-30.829-19.44-52.52v-8.892
			c0-21.642,6.197-39.405,19.436-52.721c17.331-17.435,44.239-25.945,82.658-26.022c29.479,0,51.675,5.001,68.665,15.287
			C468.75,581.633,480,603.574,480,631.773v8.965c0,21.62-6.309,39.132-19.553,52.454C443.099,710.645,416.309,719,377.975,719
			H377.9z M361.033,640.442c0.828,0.558,4.408,2.399,16.996,2.6c12.524-0.2,16.054-2.039,16.875-2.593
			c0.089-0.325,0.096-1.085,0.096-2.474v-3.531c0-1.321-0.042-2.06-0.129-2.387c-0.846-0.563-4.496-2.388-16.973-2.587
			c-12.542,0.199-16.045,2.027-16.899,2.594c-0.084,0.327,0.001,1.063,0.001,2.38v3.531
			C361,639.357,360.944,640.117,361.033,640.442z"/>
		<path d="M461.822,631.773v8.965c0.183,46.471-37.688,59.918-83.884,60.01c-46.288-0.092-84.159-13.539-83.976-60.01v-8.965
			c-0.183-46.561,37.688-59.917,83.976-60.008C424.225,571.766,461.822,585.304,461.822,631.773z M413.888,634.702
			c0.274-20.034-16.375-23.693-35.95-23.967c-19.667,0.273-36.316,3.933-36.042,23.967v3.019
			c-0.274,20.125,16.375,23.784,36.042,24.058c19.576-0.273,36.225-3.933,35.95-24.058V634.702z"/>
		<path d="M549.743,719c-20.646,0-44.299-0.887-63.198-8.604c-22.468-9.175-35.882-26.729-38.792-50.99l12.321-13.825
			c-10.396-10.415-12.478-22.363-12.454-30.358c0-23.592,13.14-42.137,37-52.16c16.115-6.771,37.43-10.063,65.162-10.063h0.118
			c21.795,0,44.521,1.32,63.083,8.857c22.5,9.135,35.926,26.854,38.827,51.229l-12.295,13.85
			c10.373,10.429,12.451,22.414,12.427,30.415c0,23.598-13.147,41.889-37.021,51.883c-16.084,6.734-37.391,9.767-65.139,9.767
			H549.743z"/>
		<path d="M550.789,622.353c34.303,1.738,82.512,4.116,82.42,34.943c0,35.127-40.25,43.452-83.426,43.452
			c-43.086-0.092-78.854-5.306-83.428-43.452h50.221c5.488,9.515,18.204,11.983,33.207,11.983c14.909,0,33.205-2.469,33.205-11.983
			c0-5.396-14.91-6.22-34.213-7.135c-34.303-1.738-82.511-4.117-82.42-34.853c0-35.127,40.25-43.543,83.428-43.543
			c43.085,0.274,78.853,5.123,83.426,43.543h-50.221c-5.488-9.696-18.204-11.984-33.205-11.984
			c-14.911,0-33.207,2.196-33.207,11.984C516.576,620.706,531.487,621.438,550.789,622.353z"/>
		<polygon points="686.043,716 667,697.912 667,633 629.053,633 610,613.936 610,574.968 629.053,556 790.967,556 809,574.968 
			809,613.936 790.967,633 752,633 752,697.912 733.977,716 		"/>
		<path d="M686.043,697.912v-83.977h-56.99v-38.968h161.914v38.968h-56.99v83.977H686.043z"/>
	</g>
	<g>
		<path fill="#CCBA0D" d="M423.468,263.792h48.025v122.945h-53.972l-66.046-75.103v75.103h-47.934V263.792h65.955l53.971,65.131
			V263.792z"/>
		<path fill="#CCBA0D" d="M493.773,263.976h143.893v31.468h-95.96v15.734h95.96v28.449h-95.96v15.734h95.96v31.559H493.773V263.976z
			"/>
		<path fill="#CCBA0D" d="M857.627,263.976h53.972L857.627,386.92h-56.99l-26.985-61.472l-26.985,61.472h-56.989l-53.973-122.944
			h53.973l28.449,77.847l28.54-77.847h53.971l28.45,77.847L857.627,263.976z"/>
		<path fill="#CCBA0D" d="M302.195,457.943l36.042-44.092h56.899l-68.974,80.958v41.988h-47.934v-41.988l-68.973-80.958h56.99
			L302.195,457.943z"/>
		<path fill="#CCBA0D" d="M542.647,470.658v8.964c0.183,46.471-37.688,59.917-83.884,60.009
			c-46.288-0.092-84.159-13.538-83.976-60.009v-8.964c-0.183-46.562,37.688-59.917,83.976-60.009
			C505.051,410.649,542.647,424.188,542.647,470.658z M494.713,473.585c0.274-20.033-16.375-23.692-35.95-23.966
			c-19.667,0.274-36.316,3.933-36.042,23.966v3.019c-0.274,20.125,16.375,23.785,36.042,24.058
			c19.576-0.273,36.225-3.933,35.95-24.058V473.585z"/>
		<path fill="#CCBA0D" d="M669.668,413.759c25.34-0.274,46.836,21.04,46.471,46.47c0,9.239-2.47,17.655-7.41,25.156
			c-4.848,7.41-11.343,13.082-19.393,16.832l26.803,34.487h-51.045L641.95,506.7H599.14v30.005h-47.934V413.759H669.668z
			 M599.14,449.71v20.948h58.454c2.927,0,5.396-1.006,7.409-3.019c2.104-2.104,3.11-4.574,3.11-7.41
			c0-5.854-4.666-10.52-10.52-10.52H599.14z"/>
		<path fill="#CCBA0D" d="M773.271,494.625v41.987h-47.935V413.668h47.935v41.988h20.947l45.099-41.988h62.937l-63.76,61.473
			l63.76,61.472h-62.937l-45.099-41.987H773.271z"/>
		<path fill="#CCBA0D" d="M241.861,563.727c25.339-0.274,46.836,21.039,46.47,46.471c0.366,25.338-21.131,46.835-46.47,46.47
			h-70.529v30.005h-47.934V563.727H241.861z M229.877,620.625c2.836,0,5.306-1.007,7.318-3.019c2.104-2.104,3.11-4.574,3.11-7.409
			c0-2.928-1.006-5.397-3.11-7.41c-2.013-2.104-4.482-3.11-7.318-3.11h-58.545v20.948H229.877z"/>
		<path fill="#CCBA0D" d="M461.822,620.533v8.965c0.183,46.471-37.688,59.918-83.884,60.01
			c-46.288-0.092-84.159-13.539-83.976-60.01v-8.965c-0.183-46.562,37.688-59.917,83.976-60.009
			C424.225,560.524,461.822,574.063,461.822,620.533z M413.888,623.461c0.274-20.033-16.375-23.692-35.95-23.967
			c-19.667,0.274-36.316,3.934-36.042,23.967v3.019c-0.274,20.125,16.375,23.784,36.042,24.059
			c19.576-0.274,36.225-3.934,35.95-24.059V623.461z"/>
		<path fill="#CCBA0D" d="M550.789,611.111c34.303,1.738,82.512,4.116,82.42,34.944c0,35.127-40.25,43.452-83.426,43.452
			c-43.086-0.092-78.854-5.307-83.428-43.452h50.221c5.488,9.514,18.204,11.983,33.207,11.983c14.909,0,33.205-2.47,33.205-11.983
			c0-5.397-14.91-6.221-34.213-7.136c-34.303-1.737-82.511-4.116-82.42-34.852c0-35.127,40.25-43.544,83.428-43.544
			c43.085,0.274,78.853,5.123,83.426,43.544h-50.221c-5.488-9.697-18.204-11.984-33.205-11.984
			c-14.911,0-33.207,2.196-33.207,11.984C516.576,609.465,531.487,610.197,550.789,611.111z"/>
		<path fill="#CCBA0D" d="M686.043,686.672v-83.977h-56.99v-38.969h161.914v38.969h-56.99v83.977H686.043z"/>
	</g>
</g>
</svg>
