<?xml version="1.0" encoding="utf-8"?>
<!-- Generator: Adobe Illustrator 26.0.0, SVG Export Plug-In . SVG Version: 6.00 Build 0)  -->
<svg version="1.1" id="Capa_1" xmlns="http://www.w3.org/2000/svg" xmlns:xlink="http://www.w3.org/1999/xlink" x="0px" y="0px"
	 viewBox="0 0 120 100" style="enable-background:new 0 0 120 100;" xml:space="preserve">
<style type="text/css">
	.st0{fill:#FFFFFF;}
	.st1{fill:none;stroke:#FFFFFF;stroke-width:4.2481;stroke-linecap:round;stroke-linejoin:round;}
</style>
<g id="Ojo_Blanco">
	<path class="st0" d="M60,9.8c0.76,0,2.66,0.21,3.8,2.19l41.35,71.63c1.14,1.98,0.38,3.73,0,4.38c-0.38,0.66-1.51,2.19-3.8,2.19
		H18.65c-2.28,0-3.42-1.53-3.8-2.19c-0.38-0.66-1.14-2.41,0-4.38L56.2,11.99C57.35,10.02,59.24,9.8,60,9.8 M60,5.55
		c-3.09-0.02-5.95,1.63-7.48,4.32L11.17,81.5C7.85,87.25,12,94.45,18.65,94.45h82.71c6.65,0,10.8-7.19,7.48-12.95L67.48,9.87
		C65.95,7.19,63.09,5.54,60,5.55L60,5.55z"/>
	<path class="st0" d="M60,48.78c3.53,0,7.05,0.43,10.47,1.29c3.31,0.84,6.51,2.07,9.52,3.67c5.04,2.69,9.49,6.35,13.1,10.78
		c-3.61,4.43-8.06,8.09-13.1,10.78c-12.5,6.63-27.48,6.63-39.99,0c-5.04-2.69-9.49-6.35-13.1-10.78c3.61-4.43,8.06-8.09,13.1-10.78
		C46.16,50.48,53.03,48.77,60,48.78 M60,44.54c-15.89,0-29.94,7.9-38.42,19.99C30.06,76.61,44.11,84.52,60,84.52
		s29.94-7.9,38.42-19.99C89.94,52.44,75.89,44.54,60,44.54z"/>
	<path class="st0" d="M60,49.09c8.47,0,15.33,6.86,15.33,15.33S68.47,79.75,60,79.75c-8.47,0-15.33-6.86-15.33-15.33
		c0-4.07,1.61-7.97,4.49-10.84C52.03,50.7,55.93,49.08,60,49.09 M60,44.85c-10.81,0-19.58,8.76-19.58,19.58
		c0,10.81,8.77,19.57,19.59,19.57c10.81,0,19.56-8.76,19.57-19.57C79.58,53.61,70.81,44.85,60,44.85L60,44.85z"/>
	<line class="st1" x1="56.32" y1="60.75" x2="63.68" y2="68.1"/>
	<line class="st1" x1="56.32" y1="68.1" x2="63.68" y2="60.75"/>
	<path class="st1" d="M85.24,45.16c-15.34-7.76-34.05-8.29-50.48,0.21"/>
</g>
</svg>
