<svg id="Capa_1" data-name="Capa 1" xmlns="http://www.w3.org/2000/svg" viewBox="0 0 941.59 837.01"><defs><style>.cls-1{fill:#fff;}.cls-2{fill:none;stroke:#fff;stroke-linecap:round;stroke-linejoin:round;stroke-width:40px;}</style></defs><g id="Ojo_Blanco"><path class="cls-1" d="M500,121.49c7.17,0,25,2,35.75,20.64L925.14,816.57c10.76,18.64,3.58,35.09,0,41.28s-14.24,20.64-35.75,20.64H110.61c-21.51,0-32.17-14.43-35.75-20.64s-10.76-22.65,0-41.28L464.25,142.13C475,123.51,492.83,121.49,500,121.49m0-40a80.51,80.51,0,0,0-70.39,40.64L40.22,796.59C8.93,850.78,48,918.5,110.61,918.5H889.39c62.57,0,101.68-67.73,70.39-121.91L570.39,122.13A80.52,80.52,0,0,0,500,81.5Z" transform="translate(-29.21 -81.5)"/><path class="cls-1" d="M500,488.54a403.29,403.29,0,0,1,98.63,12.19,399,399,0,0,1,89.63,34.56A405.49,405.49,0,0,1,811.64,636.75,405.34,405.34,0,0,1,688.26,738.21a401.7,401.7,0,0,1-376.52,0A405.78,405.78,0,0,1,188.36,636.75,405.49,405.49,0,0,1,311.74,535.29,399.78,399.78,0,0,1,500,488.54m0-40c-149.63,0-281.87,74.4-361.79,188.21C218.13,750.56,350.37,825,500,825s281.87-74.4,361.79-188.22C781.87,522.93,649.63,448.54,500,448.54Z" transform="translate(-29.21 -81.5)"/><path class="cls-1" d="M500,491.46a144.35,144.35,0,1,1-102.06,42.28A143.32,143.32,0,0,1,500,491.46m0-40c-101.81,0-184.34,82.53-184.34,184.33a184.34,184.34,0,0,0,368.68,0c0-101.8-82.53-184.33-184.34-184.33Z" transform="translate(-29.21 -81.5)"/><line class="cls-2" x1="436.17" y1="519.68" x2="505.41" y2="588.91"/><line class="cls-2" x1="436.17" y1="588.91" x2="505.41" y2="519.68"/><path class="cls-2" d="M737.68,454.39c-144.41-73.05-320.64-78.07-475.36,2" transform="translate(-29.21 -81.5)"/></g></svg>