<?xml version="1.0" encoding="utf-8"?>
<!-- Generator: Adobe Illustrator 16.0.3, SVG Export Plug-In . SVG Version: 6.00 Build 0)  -->
<!DOCTYPE svg PUBLIC "-//W3C//DTD SVG 1.1//EN" "http://www.w3.org/Graphics/SVG/1.1/DTD/svg11.dtd">
<svg version="1.1" id="Capa_1" xmlns="http://www.w3.org/2000/svg" xmlns:xlink="http://www.w3.org/1999/xlink" x="0px" y="0px"
	 width="1000px" height="1000px" viewBox="0 0 1000 1000" enable-background="new 0 0 1000 1000" xml:space="preserve">
<g>
	<path d="M211.719,0h44.922v44.531h41.406V0h44.922v134.766h-44.922V89.844h-41.016v44.922h-45.313 M402.344,44.922h-39.648V0
		h124.414v44.922h-39.844v89.844h-44.922 M506.836,0h47.07l28.906,47.461L611.719,0h47.07v134.766h-44.922V67.969l-31.445,48.438
		l-31.445-48.438v66.797h-44.141 M681.055,0h44.922v90.234h63.672v44.531H681.055"/>
	<path fill="#E44D26" d="M210.156,919.922l-64.453-723.438h708.594l-64.453,723.047L499.414,1000"/>
	<path fill="#F16529" d="M500,938.477V255.859h289.648l-55.273,617.188"/>
	<path fill="#EBEBEB" d="M277.344,344.336H500v88.672H374.609l8.203,90.82H500v88.477H301.563 M305.469,656.836h89.063l6.25,70.898
		L500,754.297v92.578l-182.031-50.781"/>
	<path fill="#FFFFFF" d="M721.875,344.336H499.609v88.672h214.063 M705.664,523.828H499.609V612.5h109.375l-10.352,115.234
		l-99.023,26.563v92.188l181.641-50.391"/>
</g>
</svg>
