<?xml version="1.0" encoding="utf-8"?>
<!-- Generator: Adobe Illustrator 16.0.3, SVG Export Plug-In . SVG Version: 6.00 Build 0)  -->
<!DOCTYPE svg PUBLIC "-//W3C//DTD SVG 1.1//EN" "http://www.w3.org/Graphics/SVG/1.1/DTD/svg11.dtd">
<svg version="1.1"
	 id="svg2169" sodipodi:version="0.32" sodipodi:docbase="/home/bene/Desktop" xmlns:dc="http://purl.org/dc/elements/1.1/" xmlns:cc="http://web.resource.org/cc/" xmlns:rdf="http://www.w3.org/1999/02/22-rdf-syntax-ns#" xmlns:sodipodi="http://sodipodi.sourceforge.net/DTD/sodipodi-0.dtd" xmlns:inkscape="http://www.inkscape.org/namespaces/inkscape" xmlns:svg="http://www.w3.org/2000/svg" inkscape:output_extension="org.inkscape.output.svg.inkscape" sodipodi:docname="dessin-1.svg" inkscape:version="0.45.1"
	 xmlns="http://www.w3.org/2000/svg" xmlns:xlink="http://www.w3.org/1999/xlink" x="0px" y="0px" width="1000px" height="1000px"
	 viewBox="-444.79 -445.077 1000 1000" enable-background="new -444.79 -445.077 1000 1000" xml:space="preserve">
<sodipodi:namedview  id="base" height="184.25197px" width="131.10236px" pagecolor="#ffffff" inkscape:cx="-260.46312" borderopacity="1.0" inkscape:zoom="0.24748737" bordercolor="#666666" inkscape:cy="316.02744" inkscape:window-y="48" inkscape:window-x="5" inkscape:window-height="624" inkscape:window-width="872" inkscape:current-layer="layer1" inkscape:document-units="px" inkscape:pageshadow="2" inkscape:pageopacity="0.0">
	</sodipodi:namedview>
<g id="layer1" transform="translate(-473.36088,-251.72485)" inkscape:label="Calque 1" inkscape:groupmode="layer">
	<g id="g1894" transform="translate(428.42338,184.2561)">
		
			<linearGradient id="path8615_1_" gradientUnits="userSpaceOnUse" x1="-455.5923" y1="568.4553" x2="39.4004" y2="71.807" gradientTransform="matrix(1 0 0 -1 149.0625 282.3149)">
			<stop  offset="0" style="stop-color:#387EB8"/>
			<stop  offset="1" style="stop-color:#366994"/>
		</linearGradient>
		<path id="path8615" fill="url(#path8615_1_)" d="M96.539-375.531c-254.133,0-238.263,110.208-238.263,110.208l0.283,114.173
			h242.513v34.28h-338.837c0,0-162.619-18.441-162.619,237.978c0,256.422,141.937,247.33,141.937,247.33h84.71V249.447
			c0,0-4.568-141.938,139.67-141.938c144.234,0,240.524,0,240.524,0s135.139,2.187,135.139-130.604c0-132.792,0-219.564,0-219.564
			S362.117-375.531,96.539-375.531z M-37.183-298.754c24.13,0,43.629,19.495,43.629,43.629c0,24.125-19.499,43.629-43.629,43.629
			c-24.129,0-43.631-19.504-43.631-43.629C-80.813-279.259-61.312-298.754-37.183-298.754z"/>
		
			<linearGradient id="path8620_1_" gradientUnits="userSpaceOnUse" x1="-151.1943" y1="252.2903" x2="380.435" y2="-257.0374" gradientTransform="matrix(1 0 0 -1 149.0625 282.3149)">
			<stop  offset="0" style="stop-color:#FFE052"/>
			<stop  offset="1" style="stop-color:#FFC331"/>
		</linearGradient>
		<path id="path8620" fill="url(#path8620_1_)" d="M103.754,620.315c254.131,0,238.265-110.205,238.265-110.205l-0.281-114.176
			H99.22v-34.278h338.84c0,0,162.62,18.439,162.62-237.979S458.743-123.651,458.743-123.651h-84.71V-4.663
			c0,0,4.57,141.938-139.671,141.938c-144.238,0-240.531,0-240.531,0s-135.139-2.187-135.139,130.604c0,132.793,0,219.564,0,219.564
			S-161.826,620.315,103.754,620.315z M237.48,543.538c-24.137,0-43.629-19.504-43.629-43.63c0-24.125,19.492-43.628,43.629-43.628
			c24.125,0,43.629,19.503,43.629,43.628C281.109,524.034,261.605,543.538,237.48,543.538z"/>
	</g>
</g>
</svg>
