<?xml version="1.0" encoding="utf-8"?>
<!-- Generator: Adobe Illustrator 16.0.3, SVG Export Plug-In . SVG Version: 6.00 Build 0)  -->
<!DOCTYPE svg PUBLIC "-//W3C//DTD SVG 1.1//EN" "http://www.w3.org/Graphics/SVG/1.1/DTD/svg11.dtd">
<svg version="1.1" id="layer" xmlns="http://www.w3.org/2000/svg" xmlns:xlink="http://www.w3.org/1999/xlink" x="0px" y="0px"
	 width="947px" height="184px" viewBox="20.5 398.5 947 184" enable-background="new 20.5 398.5 947 184" xml:space="preserve">
<g id="Visual-Design">
	<g id="Partners-_x26_-Alliances" transform="translate(-62.000000, -48.000000)">
		<g id="Asset-1" transform="translate(62.000000, 48.000000)">
			<path id="Shape" fill="#047BC1" d="M572.086,448.466h7.976l2.761,11.657h0.92c6.749-8.129,16.871-13.037,27.454-13.497
				c19.785,0,33.742,17.024,33.742,46.779c0,29.601-13.804,46.778-33.742,46.778c-10.583-0.307-20.552-5.214-27.301-13.343h-0.92
				v44.479h-10.736L572.086,448.466z M582.822,514.57c9.049,11.35,17.178,17.024,27.301,17.024
				c14.877,0,23.772-13.343,23.772-37.883s-8.896-37.884-23.772-37.884c-10.123,0-18.252,5.368-27.301,16.871V514.57z"/>
			<path id="Path" fill="#047BC1" d="M665.951,448.159h10.122v16.258h1.074c5.981-12.116,13.497-17.638,24.693-17.638h0.46v10.89
				h-1.534c-11.963,0-19.785,7.361-24.847,24.847v57.822h-10.122L665.951,448.159z"/>
			<rect id="Rectangle" x="722.853" y="446.779" fill="#047BC1" width="10.43" height="93.559"/>
			<path id="Path_1_" fill="#047BC1" d="M785.583,532.056c11.656,0,19.479-7.056,19.479-16.564c0-10.583-8.742-13.344-24.387-18.865
				c-19.172-6.749-28.987-11.963-28.987-25.767s11.656-24.08,30.521-24.08c12.729,0.153,24.386,6.441,31.288,16.564l-7.976,5.368
				c-5.521-8.436-15.03-13.497-25.307-13.497c-4.295-0.46-8.742,0.92-11.963,3.834c-3.222,2.914-5.062,6.902-4.908,11.043
				c0,9.663,9.202,11.964,24.847,17.639c18.712,6.748,28.374,12.27,28.374,26.687s-12.577,25.921-32.056,25.921
				c-14.264,0.307-27.606-6.442-35.582-17.792l8.282-6.441C765.338,526.841,774.693,532.056,785.583,532.056z"/>
			<path id="Path_2_" fill="#047BC1" d="M837.884,448.466h9.815v14.265h0.613c9.51-10.736,19.479-15.798,28.988-15.798
				c9.816-0.307,18.559,6.288,21.473,15.798H900c9.816-10.736,19.325-15.798,28.988-15.798c15.184,0,22.699,9.815,22.699,29.448
				v64.11h-10.123v-60.123c0-16.258-2.761-23.927-15.49-23.927c-8.283,0-17.179,5.368-26.074,17.024v67.025h-10.583v-60.123
				c0-16.258-2.761-23.927-15.49-23.927c-8.282,0-17.024,5.368-26.074,17.024v67.025H837.27L837.884,448.466z"/>
			<path id="Shape_1_" fill="#124E91" d="M272.853,410.43v45.705c5.215-7.361,13.804-11.656,22.853-11.503
				c22.392,0,37.423,17.638,37.423,47.239c0,30.828-14.11,48.467-37.27,48.467c-9.816,0.307-19.172-4.295-24.847-12.271
				l-2.607,10.89h-13.19c0.92-9.202,1.073-17.791,1.073-26.073V410.276h16.564V410.43z M293.098,526.381
				c14.264,0,22.546-11.504,22.546-33.283c0-22.853-8.282-34.509-23.16-34.509c-7.976,0.307-15.337,4.448-19.786,10.89v45.092
				C277.301,521.473,284.816,525.92,293.098,526.381z"/>
			<polygon id="Path_3_" fill="#124E91" points="364.11,415.645 364.11,540.338 348.619,540.338 348.619,415.645 			"/>
			<path id="Path_4_" fill="#124E91" d="M406.135,446.779v61.963c0,12.116,3.835,17.792,13.037,17.792
				c8.742-0.768,16.871-5.215,22.393-12.271v-67.331h16.104v92.024h-15.031v-12.27c-9.969,9.202-18.558,13.957-28.527,13.957
				c-15.184,0-24.08-9.663-24.08-26.994v-66.564h16.104V446.779z"/>
			<path id="Shape_2_" fill="#124E91" d="M495.092,496.626v1.687c0,18.252,8.282,28.528,22.546,28.528
				c9.356,0,17.945-5.521,21.779-14.11l11.964,7.208c-6.596,13.037-20.093,21.013-34.663,20.553
				c-24.54,0-38.037-15.951-38.037-45.859c0-30.828,13.65-47.699,36.964-47.699c21.472,0,35.275,16.411,35.275,44.938
				c0,1.534,0,3.067,0,4.602L495.092,496.626z M515.184,459.97c-11.81,0-19.171,8.436-19.938,23.926h38.957
				C533.896,468.559,526.533,459.97,515.184,459.97L515.184,459.97z"/>
			<path id="Shape_3_" fill="#167EC2" d="M938.65,410.43c7.209,0,13.037,5.828,13.037,13.036c0,7.209-5.828,13.037-13.037,13.037
				s-13.037-5.828-13.037-13.037C925.767,416.258,931.441,410.43,938.65,410.43z M938.65,434.202c2.914,0,5.675-1.227,7.516-3.221
				c1.84-1.994,3.067-4.908,2.914-7.669c0.307-3.987-1.688-7.668-5.062-9.815s-7.669-1.994-11.043,0s-5.368,5.828-5.062,9.815
				c-0.153,2.914,0.767,5.828,2.761,7.976s4.755,3.374,7.669,3.374v-0.46H938.65z M933.742,415.798h5.981
				c3.528,0,5.215,1.38,5.215,4.294c0.153,1.074-0.307,2.147-1.073,3.067c-0.768,0.768-1.841,1.228-2.914,1.228l4.294,6.748h-2.607
				l-4.294-6.748h-2.147v6.748h-2.147L933.742,415.798z M936.35,422.393h2.914c1.841,0,3.221-0.46,3.221-2.454
				s-1.533-2.147-3.221-2.147h-2.914V422.393z"/>
			<g id="Artwork_10" transform="translate(0.000000, 1.500000)">
				<polygon id="Path_5_" fill="#0E7ABF" points="183.742,485.003 153.067,502.641 153.067,502.795 184.049,538.377 
					184.049,538.377 214.724,520.586 				"/>
				<polygon id="Path_6_" fill="#D3E2EE" points="184.049,538.377 184.049,538.377 153.527,556.016 153.527,556.016 
					122.853,520.126 122.853,520.126 153.067,502.641 153.067,502.795 				"/>
				<polygon id="Path_7_" fill="#D3E2EE" points="183.742,485.003 183.742,485.003 153.067,502.641 122.699,467.365 152.761,449.42 
					152.914,449.42 				"/>
				<polygon id="Path_8_" fill="#0E7ABF" points="122.853,573.96 153.527,556.016 153.527,556.016 122.853,520.126 				"/>
				<polygon id="Path_9_" fill="#104C8D" points="122.699,467.365 153.067,502.641 122.853,520.126 122.546,467.365 				"/>
				<polygon id="Path_10_" fill="#0E7ABF" points="122.546,467.365 122.699,467.365 152.761,449.42 152.914,449.42 122.546,414.604 
									"/>
				<polygon id="Path_11_" fill="#0068AB" points="61.35,537.917 61.35,537.917 122.853,573.96 122.853,520.126 122.853,520.126 
					92.024,502.641 61.656,485.31 				"/>
				<polygon id="Path_12_" fill="#1E3667" points="122.546,467.365 122.853,520.126 122.853,520.126 92.024,502.641 92.024,502.641 
					91.871,450.188 				"/>
				<polygon id="Path_13_" fill="#0068AB" points="122.546,414.604 91.871,450.188 91.871,450.188 122.546,467.365 122.546,467.365 
									"/>
				<polygon id="Path_14_" fill="#B1C8D5" points="92.024,502.641 92.024,502.641 61.656,485.31 61.656,485.31 91.871,450.188 
					91.871,450.188 				"/>
				<polygon id="Path_15_" fill="#1E3667" points="31.442,520.586 61.35,537.917 61.35,537.917 61.656,485.31 61.656,485.31 				"/>
			</g>
		</g>
	</g>
</g>
</svg>
