<?xml version="1.0" encoding="utf-8"?>
<!-- Generator: Adobe Illustrator 16.0.3, SVG Export Plug-In . SVG Version: 6.00 Build 0)  -->
<!DOCTYPE svg PUBLIC "-//W3C//DTD SVG 1.1//EN" "http://www.w3.org/Graphics/SVG/1.1/DTD/svg11.dtd">
<svg version="1.1" xmlns="http://www.w3.org/2000/svg" xmlns:xlink="http://www.w3.org/1999/xlink" x="0px" y="0px" width="1000px"
	 height="1000px" viewBox="0 0 1000 1000" enable-background="new 0 0 1000 1000" xml:space="preserve">
<g id="Capa_4" display="none">
	<rect display="inline" width="1000" height="1000"/>
</g>
<g id="Capa_3">
	<circle fill="#FFFFFF" cx="500" cy="500" r="500"/>
</g>
<g id="Capa_1">
	<g>
		<g>
			<polygon fill="#1D93DB" points="500.402,288.687 339.345,168.385 500.381,49.509 661.439,169.508 			"/>
			<polygon fill="#1D80B2" points="500.413,455.784 500.402,288.687 661.439,169.508 661.45,336.303 			"/>
			<polygon fill="#25AFF4" points="500.413,456.923 338.55,338.006 339.345,168.687 500.402,287.85 			"/>
		</g>
		<g>
			<polygon fill="#F2721C" points="178.128,527.83 17.069,407.529 178.106,288.652 339.165,408.651 			"/>
			<polygon fill="#DB6A1D" points="178.138,697.205 178.128,527.83 339.165,408.651 339.175,578.863 			"/>
			<polygon fill="#FF8C3E" points="178.138,697.205 16.275,578.288 17.069,407.831 178.128,526.993 			"/>
		</g>
		<g>
			<polygon fill="#B529D3" points="822.678,527.83 661.619,407.529 822.654,288.652 983.715,408.651 			"/>
			<polygon fill="#9C1DB2" points="822.688,697.205 822.678,527.83 983.715,408.651 983.725,578.863 			"/>
			<polygon fill="#DF27FF" points="822.688,697.205 660.825,578.288 661.619,407.831 822.678,526.993 			"/>
		</g>
		<g>
			<polygon fill="#DDD31B" points="500.402,527.83 339.345,407.529 500.381,288.652 661.439,408.651 			"/>
			<polygon fill="#C6BD18" points="500.413,697.205 500.402,527.83 661.439,408.651 661.45,578.863 			"/>
			<polygon fill="#F4EE19" points="500.413,697.205 338.55,578.288 339.345,407.831 500.402,526.993 			"/>
		</g>
	</g>
</g>
<g id="Capa_2">
	<g>
		<path d="M200.942,746.499c1.75,5.25,3.625,10.375,5.25,15.75c0.75,2.5,1.375,5,2,7.5c1.25-4.25,2.5-8.375,3.75-12.625
			c1.5-4.5,3.125-9,4.625-13.5l12.25-34.75h19.625l12.5,88.25h-18.625l-5.25-42.5c-0.375-4.125-0.875-8.25-1.125-12.375
			c-0.125-3-0.125-6-0.125-9c-2.125,7.5-4.5,15-7,22.375l-14.625,41.5h-12l-16-44.25c-1.375-3.625-2.625-7.25-3.625-11
			c-0.875-2.625-1.5-5.25-2.25-8c0,3.375-0.125,6.625-0.25,10c-0.375,4.25-0.875,8.5-1.375,12.75l-4.625,40.5h-18.375l12.375-88.25
			h19.75L200.942,746.499z"/>
		<path d="M292.066,797.124h-19.25v-88.25h19.25V797.124z"/>
		<path d="M373.69,734.499c-3.125-2.75-11.25-10-23.625-10c-2.125,0-7.375,0.125-12.5,3c-5.25,3-13.5,10.875-13.5,26
			c0,2,0.125,6.125,1.75,11c2,5.875,8,17.125,24.625,17.125c1.25,0,3.5,0,6.625-0.625c2.25-0.5,7.875-2.25,12.25-5.25
			c1.375-1,2.875-2.125,4.375-3.25l-0.125,20.625c-4,1.625-13,5.875-25.25,5.875c-4.375,0-17.25-0.375-27.75-9.375
			c-5.75-4.875-15.875-16.625-15.875-36.625c0-7.875,1.75-17,5.375-24.125c1-1.875,2.75-5,6.25-8.75c4-4.5,9-8.25,14.625-10.375
			c7.125-2.75,14.25-3,16.75-3c2.875,0,10.875,0.375,19,3.125c2.375,0.875,4.75,1.875,7,2.875V734.499z"/>
		<path d="M413.814,708.874c2.375,0,4.625,0,7,0.125c9.5,0.375,18.75,2.5,24.375,11.25c3.875,5.875,4.125,12.375,4.125,14.75
			c0,8-3.125,16.625-10.125,21.125c-2.5,1.625-4.25,2.25-9.75,3.5l25.5,37.5h-22.75l-23.375-37.25v37.25h-18.625v-88.25H413.814z
			 M408.939,747.499h6.875c5.125-0.125,10.25-0.5,13.125-5.5c0.625-1.125,1.625-3.125,1.625-6.25c0-1.25-0.125-4.5-2.5-7.25
			c-3.25-3.75-8-4.125-12.625-4.25h-6.5V747.499z"/>
		<path d="M516.189,707.874c4.875,1.125,16.25,4.375,25.25,15c3.75,4.5,10.625,15,10.625,30.75c0,3.5-0.25,10.75-3.75,19.125
			c-7.5,18.25-24.125,26.625-43.125,26.625c-4.5,0-18-0.375-29.5-8.875c-6.25-4.625-17.625-15.75-17.625-36.25
			c0-3.375,0.25-11.25,3.75-19.875c7.125-17.75,24.125-27.75,42.875-27.75C506.439,706.624,511.189,706.749,516.189,707.874z
			 M487.939,730.874c-3.375,2.625-10.875,10-10.75,22.375c0,2,0.125,6.375,2.25,11.375c4.5,11.125,15.125,16.75,26.75,16.75
			c8.75,0,13.625-3.125,16.5-5.5c6.75-5.5,10.125-14.125,10.125-22.625c0-3.375-0.5-11.5-6.625-18.75c-2.5-3-9.625-9.625-20.875-9.5
			C502.564,724.999,494.564,725.499,487.939,730.874z"/>
		<path d="M604.563,732.124c-1-1.375-5.625-8.375-13-8.375c-4.75,0-9.125,3.125-9.125,8.125c0.125,6.875,8.375,10,12.625,12
			c8.375,3.625,10.875,5.125,14.375,8c3.375,2.875,8.5,8.25,8.5,18.75c0,11-5.375,17.25-8.5,20.125c-0.875,0.875-3.125,3-6.25,4.625
			c-6.5,3.5-13.75,3.75-16.125,3.75c-1.875,0-8.875-0.25-14.875-2.5c-7-2.625-12.625-8.5-14.125-10l12.75-14
			c4.125,4.625,9.125,10.25,16.375,10.25c5.75,0,10.75-4.25,10.75-10.25c0-1.875-0.5-3.5-1.5-5c-2.375-3.625-8.125-6-11.5-7.5
			c-4.5-2.25-8.875-4.625-12.75-7.625c-3.125-2.5-9.75-8.75-9.75-19.75c0-7.375,3-12.25,4.5-14.5c7.75-11.125,20-11.75,24.375-11.75
			c2,0,8.5,0.375,14.5,3.125c5.75,2.75,9.625,7.25,11,8.75L604.563,732.124z"/>
		<path d="M685.438,707.874c4.875,1.125,16.25,4.375,25.25,15c3.75,4.5,10.625,15,10.625,30.75c0,3.5-0.25,10.75-3.75,19.125
			c-7.5,18.25-24.125,26.625-43.125,26.625c-4.5,0-18-0.375-29.5-8.875c-6.25-4.625-17.625-15.75-17.625-36.25
			c0-3.375,0.25-11.25,3.75-19.875c7.125-17.75,24.125-27.75,42.875-27.75C675.688,706.624,680.438,706.749,685.438,707.874z
			 M657.188,730.874c-3.375,2.625-10.875,10-10.75,22.375c0,2,0.125,6.375,2.25,11.375c4.5,11.125,15.125,16.75,26.75,16.75
			c8.75,0,13.625-3.125,16.5-5.5c6.75-5.5,10.125-14.125,10.125-22.625c0-3.375-0.5-11.5-6.625-18.75c-2.5-3-9.625-9.625-20.875-9.5
			C671.813,724.999,663.813,725.499,657.188,730.874z"/>
		<path d="M785.187,708.874v16.75h-32v17.25h32v17.25h-32v37h-19.25v-88.25H785.187z"/>
		<path d="M847.311,708.874v17h-18.875v71.25h-19.125v-71h-18.875v-17.25H847.311z"/>
		<path fill="#DDD31B" d="M325.493,803.859l28.771,85.263c2.1,6.51,3.99,13.021,5.67,19.53c1.05,3.78,1.68,7.561,2.31,11.341
			c2.31-8.61,4.62-17.011,7.14-25.411c1.89-5.88,3.78-11.34,5.67-17.011l24.781-73.712h34.861l-57.962,148.265h-31.081
			l-55.442-148.265H325.493z"/>
		<path fill="#DDD31B" d="M493.491,803.859c16.38,0,33.391,0.63,44.312,15.12c6.72,8.82,6.93,18.061,6.93,22.261
			c0,9.66-2.52,19.111-9.66,26.041c-2.311,2.311-4.2,3.15-5.25,3.99c1.47,0.42,6.93,1.68,11.551,4.41
			c6.72,3.99,15.96,12.601,15.96,31.291c0,16.381-7.771,32.551-23.312,40.111c-8.189,3.78-16.59,4.83-34.44,5.04H447.29V803.859
			H493.491z M478.371,926.083h20.791c8.61,0,17.851-0.42,23.311-8.4c2.31-3.569,3.36-7.979,3.36-12.18c0-1.681,0-6.721-3.15-10.921
			c-5.25-7.14-13.86-7.35-21.631-7.14h-22.68V926.083z M478.791,861.401h15.541c6.931,0,12.81-0.63,17.011-7.141
			c1.05-1.68,2.939-5.04,2.939-9.87c0-2.311-0.42-7.561-5.25-11.341c-4.62-3.359-9.87-3.359-15.12-3.359h-15.121V861.401z"/>
		<path fill="#DDD31B" d="M648.894,803.859l60.902,148.265h-34.861l-11.551-30.031h-61.531l-10.921,30.031H556.49l58.172-148.265
			H648.894z M652.674,894.162c-3.57-10.08-7.351-20.16-10.921-30.031c-6.72-19.11-8.189-23.94-9.66-34.23
			c-0.42,2.939-0.84,6.09-1.47,9.03c-1.68,7.14-5.88,19.11-8.4,26.251c-3.36,9.66-6.72,19.32-10.29,28.98H652.674z"/>
	</g>
</g>
</svg>
