<?xml version="1.0" encoding="utf-8"?>
<!-- Generator: Adobe Illustrator 16.0.3, SVG Export Plug-In . SVG Version: 6.00 Build 0)  -->
<!DOCTYPE svg PUBLIC "-//W3C//DTD SVG 1.1//EN" "http://www.w3.org/Graphics/SVG/1.1/DTD/svg11.dtd">
<svg version="1.1"
	 id="svg2" sodipodi:docname="New document 1" inkscape:version="0.48.4 r9939" xmlns:dc="http://purl.org/dc/elements/1.1/" xmlns:cc="http://creativecommons.org/ns#" xmlns:rdf="http://www.w3.org/1999/02/22-rdf-syntax-ns#" xmlns:inkscape="http://www.inkscape.org/namespaces/inkscape" xmlns:svg="http://www.w3.org/2000/svg" xmlns:sodipodi="http://sodipodi.sourceforge.net/DTD/sodipodi-0.dtd"
	 xmlns="http://www.w3.org/2000/svg" xmlns:xlink="http://www.w3.org/1999/xlink" x="0px" y="0px" width="1000px" height="1000px"
	 viewBox="-78.726 -409.061 1000 1000" enable-background="new -78.726 -409.061 1000 1000" xml:space="preserve">
<g id="Capa_2">
	<circle fill="#F8F7F9" cx="421.274" cy="90.939" r="500"/>
</g>
<g>
	<path id="path3010" sodipodi:nodetypes="cccczczcccczczc" inkscape:connector-curvature="0" fill="#004B8E" d="M458.537-188.51
		c0.002-14.621,10.376-26.957,34.832-26.781c16.773,0.218,22.016,3.943,22.016,3.943l-5.792,15.362
		c-5.747-2.133-9.497-3.808-17.375-3.943s-14.91,3.994-14.171,8.79c0.967,6.069,9.94,8.966,17.129,12.692
		c7.188,3.726,15.434,10.27,15.28,21.276c0.051,21.729-21.635,28.029-35.16,28.301c-13.526,0.272-21.82-3.222-27.438-6.572
		l6.407-14.911c6.459,2.356,13.982,5.774,22.305,5.874c8.32,0.102,13.86-3.416,14.006-9.528
		c0.063-6.689-13.452-11.843-17.415-13.802C469.196-169.767,458.576-176.443,458.537-188.51L458.537-188.51z"/>
	<path id="path3018" sodipodi:nodetypes="ccccccccc" inkscape:connector-curvature="0" fill="#004B8E" d="M421.854-130.349
		l12.695-68.184h18.904c3.566-11.14,9.993-13.378,16.265-16.102h-70.984l-3.138,16.102h20.1l-12.315,68.184H421.854z"/>
	<path id="path3020" sodipodi:nodetypes="ccccccccccccc" inkscape:connector-curvature="0" fill="#004B8E" d="M322.869-130.349
		h56.114l2.788-15.809h-37.177l3.718-19.402h33.343l2.788-15.684h-33.11l3.02-17.29h35.086l3.253-16.101h-54.255L322.869-130.349z"
		/>
	<path id="path3022" sodipodi:nodetypes="csscssc" inkscape:connector-curvature="0" fill="#8A2529" d="M360.976-228.411
		c0,0,43.143-52.235,119.896-51.583c67.068,0.57,94.184,38.959,95.032,76.445c0.836,36.886-42.985,73.2-42.985,73.2
		s21.67-30.554,21.376-63.674c-0.355-40.272-27.918-69.66-86.204-70.636C410.268-265.628,360.976-228.411,360.976-228.411
		L360.976-228.411z"/>
	<path id="path3026" sodipodi:nodetypes="csscssc" inkscape:connector-curvature="0" fill="#004B8E" d="M369.564-251.379
		c-40.762,12.998-103.246,57.275-102.93,109.038c0.266,43.648,40.203,75.488,107.781,75.578
		c103.479,0.136,156.413-62.19,156.413-62.19s-53.12,45.544-140.808,48.088c-41.953,1.217-101.286-15.711-100.377-67.151
		C290.775-212.17,369.564-251.379,369.564-251.379z"/>
	<g id="text3796" transform="scale(0.9712286,1.0296237)">
		<path id="path3803" inkscape:connector-curvature="0" fill="#004B8E" d="M579.336-108.666h-2.439l-1.225-3.443
			c-0.245-0.683-0.578-1.198-1-1.543c-0.421-0.345-0.986-0.518-1.697-0.518h-2.847v5.504h-2.249v-13.497h5.993
			c0.717,0,1.375,0.062,1.981,0.188c0.604,0.126,1.123,0.338,1.557,0.632c0.434,0.296,0.773,0.689,1.016,1.175
			c0.242,0.488,0.362,1.093,0.362,1.816c0,0.95-0.256,1.723-0.77,2.32c-0.514,0.597-1.243,0.985-2.185,1.165
			c0.491,0.193,0.907,0.502,1.25,0.93c0.341,0.427,0.638,0.984,0.891,1.666L579.336-108.666z M570.128-116.081h3.503
			c0.499,0,0.927-0.041,1.285-0.121c0.359-0.079,0.652-0.205,0.881-0.378c0.229-0.173,0.399-0.396,0.508-0.671
			c0.11-0.276,0.165-0.61,0.165-1.001c0-0.703-0.211-1.229-0.632-1.578c-0.421-0.348-1.077-0.521-1.966-0.521h-3.743V-116.081z"/>
	</g>
	
		<path id="path3800" sodipodi:ry="8.5714283" sodipodi:rx="8.5714283" sodipodi:cy="349.50504" sodipodi:cx="251.25" sodipodi:type="arc" fill="none" stroke="#004B8E" d="
		M568.237-118.739c0,6.16-4.994,11.154-11.153,11.154c-6.16,0-11.152-4.994-11.152-11.154c0-6.161,4.992-11.153,11.152-11.153
		C563.243-129.892,568.237-124.9,568.237-118.739z"/>
</g>
<g>
	<g id="g3805" transform="matrix(0.9712286,0,0,1.0296237,610.25841,24.685603)">
		<path id="path3807" inkscape:connector-curvature="0" fill="#004B8E" d="M289.055,176.127h-3.234l-1.622-4.565
			c-0.326-0.906-0.768-1.589-1.327-2.045c-0.558-0.458-1.308-0.688-2.248-0.688h-3.775v7.297h-2.983v-17.893h7.943
			c0.951,0,1.827,0.082,2.626,0.249c0.801,0.166,1.49,0.449,2.066,0.837c0.575,0.392,1.026,0.912,1.346,1.557
			c0.32,0.648,0.482,1.449,0.482,2.408c0,1.26-0.342,2.285-1.024,3.077c-0.681,0.792-1.645,1.305-2.897,1.544
			c0.653,0.256,1.205,0.666,1.657,1.234c0.451,0.566,0.847,1.304,1.181,2.209L289.055,176.127z M276.849,166.296h4.644
			c0.659,0,1.227-0.054,1.702-0.159c0.476-0.105,0.865-0.272,1.169-0.502c0.304-0.229,0.526-0.525,0.673-0.889
			c0.144-0.367,0.216-0.809,0.216-1.328c0-0.932-0.279-1.629-0.838-2.092c-0.558-0.462-1.427-0.691-2.607-0.691h-4.96V166.296z"/>
	</g>
	
		<path id="path3809" sodipodi:ry="8.5714283" sodipodi:rx="8.5714283" sodipodi:cy="349.50504" sodipodi:cx="251.25" sodipodi:type="arc" fill="none" stroke="#004B8E" d="
		M898.381,196.942c0,8.168-6.62,14.788-14.785,14.788c-8.166,0-14.787-6.62-14.787-14.788c0-8.167,6.621-14.785,14.787-14.785
		C891.761,182.157,898.381,188.775,898.381,196.942z"/>
	<path id="path3813" inkscape:connector-curvature="0" fill="#004B8E" d="M252.582-51.634c-94.542,0-140.683,86.929-139.838,159.893
		c0.879,75.945,53.93,108.037,103.289,108.032c97.316-0.011,138.329-87.168,138.491-158.114
		C354.639,8.023,334.564-51.634,252.582-51.634z M245.896-13.898c51.112,0.067,60.744,37.813,61.187,69.866
		c0.688,49.618-24.631,123.464-84.098,122.857c-51.691-0.529-62.338-40.153-62.318-71.86
		C160.711,42.038,196.622-13.963,245.896-13.898z"/>
	<path id="path3821" inkscape:connector-curvature="0" fill="#004B8E" d="M19.536,212.273L60.922-9.37h71.445l7.842-38.968H-48.861
		L-55.832-9.37h71.445l-41.384,221.643H19.536z"/>
	<path id="path3829" inkscape:connector-curvature="0" fill="#004B8E" d="M349.755,212.273l50.099-260.61h144.198L536.646-9.37
		h-99.763L424.25,58.592h93.229l-7.188,37.03h-92.91l-14.478,77.98h103.685l-7.267,38.671H349.755z"/>
	<path id="path3831" sodipodi:nodetypes="ccccccccccc" inkscape:connector-curvature="0" fill="#004B8E" d="M529.785,212.273
		l49.882-260.61h143.346L715.697-9.37h-98.418l-14.197,72.753h91.486l-8.495,38.773h-90.65l-20.438,110.116H529.785z"/>
	<path id="path3833" inkscape:connector-curvature="0" fill="#004B8E" d="M699.245,212.273l49.596-260.61h45.898l-43.128,221.939
		h102.273l-7.086,38.671H699.245z"/>
</g>
<g>
	<path fill="#453159" d="M308.227,247.128c27.301,0,55.651,1.05,73.852,25.2c11.2,14.7,11.55,30.101,11.55,37.101
		c0,16.101-4.2,31.851-16.101,43.401c-3.85,3.85-7,5.25-8.75,6.65c2.45,0.699,11.55,2.8,19.25,7.35
		c11.2,6.65,26.6,21.001,26.6,52.151c0,27.3-12.95,54.251-38.851,66.851c-13.65,6.301-27.65,8.051-57.401,8.4h-87.151V247.128
		H308.227z M283.026,450.833h34.65c14.351,0,29.75-0.7,38.851-14.001c3.85-5.95,5.6-13.3,5.6-20.3c0-2.8,0-11.2-5.25-18.2
		c-8.75-11.9-23.1-12.251-36.05-11.9h-37.801V450.833z M283.726,343.031h25.901c11.55,0,21.35-1.051,28.35-11.9
		c1.75-2.801,4.9-8.4,4.9-16.45c0-3.851-0.7-12.601-8.75-18.9c-7.7-5.601-16.45-5.601-25.2-5.601h-25.201V343.031z"/>
	<path fill="#F27142" d="M612.729,447.682v46.551H447.876v-13.65l67.9-84.352c6.301-8.399,12.951-16.45,19.252-24.851
		c16.1-22.75,22.049-38.5,22.049-51.45c0-19.251-14-30.801-32.199-30.801c-6.301,0-13.301,1.4-18.551,4.9
		c-14.35,9.8-14.35,28.351-14.35,43.051h-51.102c0.35-19.951,1.75-35.701,10.85-53.901c5.951-11.55,19.25-31.851,51.451-38.851
		c4.199-0.7,12.25-2.45,23.451-2.45c8.75,0,33.6,0.7,54.6,17.851c9.102,7.7,28.352,26.95,28.352,59.851
		c-0.35,26.601-10.15,46.901-40.951,86.802c-6.301,8.05-12.6,15.75-18.9,23.45c-5.6,6.65-10.85,12.601-16.451,18.9
		c11.201-0.7,22.752-1.05,33.951-1.05H612.729z"/>
</g>
</svg>
