<?xml version="1.0" encoding="utf-8"?>
<!-- Generator: Adobe Illustrator 16.0.3, SVG Export Plug-In . SVG Version: 6.00 Build 0)  -->
<!DOCTYPE svg PUBLIC "-//W3C//DTD SVG 1.1//EN" "http://www.w3.org/Graphics/SVG/1.1/DTD/svg11.dtd">
<svg version="1.1"
	 id="svg3476" xmlns:dc="http://purl.org/dc/elements/1.1/" xmlns:cc="http://creativecommons.org/ns#" xmlns:rdf="http://www.w3.org/1999/02/22-rdf-syntax-ns#" xmlns:sodipodi="http://sodipodi.sourceforge.net/DTD/sodipodi-0.dtd" xmlns:inkscape="http://www.inkscape.org/namespaces/inkscape" xmlns:svg="http://www.w3.org/2000/svg" sodipodi:docname="CSS3.svg" inkscape:version="0.91 r13725"
	 xmlns="http://www.w3.org/2000/svg" xmlns:xlink="http://www.w3.org/1999/xlink" x="0px" y="0px" width="1000px" height="1000px"
	 viewBox="-354.906 -295.2 1000 1000" enable-background="new -354.906 -295.2 1000 1000" xml:space="preserve">
<sodipodi:namedview  id="base" showgrid="false" pagecolor="#ffffff" inkscape:cx="181.367" borderopacity="1.0" fit-margin-left="0" inkscape:zoom="0.35" bordercolor="#666666" inkscape:cy="256" fit-margin-top="0" inkscape:window-maximized="1" inkscape:window-y="27" inkscape:window-x="0" inkscape:window-height="704" inkscape:window-width="1366" fit-margin-bottom="0" fit-margin-right="0" inkscape:current-layer="layer1" inkscape:document-units="px" inkscape:pageshadow="2" inkscape:pageopacity="0.0">
	</sodipodi:namedview>
<g id="layer1" transform="translate(-193.633,-276.3622)" inkscape:label="Calque 1" inkscape:groupmode="layer">
	<g id="g3013" transform="translate(119,276.3622)">
		<polygon id="polygon2989" fill="#264DE4" points="574.633,-99.253 509.969,625.167 219.292,705.75 -70.582,625.281 
			-135.179,-99.253 		"/>
		<polygon id="polygon2991" fill="#2965F1" points="454.607,579.037 509.869,-40.012 219.727,-40.012 219.727,644.158 		"/>
		<polygon id="polygon2993" fill="#EBEBEB" points="12.909,228.707 20.873,317.567 219.727,317.567 219.727,228.707 		"/>
		<polygon id="polygon2995" fill="#EBEBEB" points="219.727,48.851 219.418,48.851 -3.096,48.851 4.984,137.712 219.727,137.712 		
			"/>
		<polygon id="polygon2997" fill="#EBEBEB" points="219.727,551.942 219.727,459.489 219.338,459.593 120.372,432.87 
			114.045,361.999 65.957,361.999 24.843,361.999 37.293,501.523 219.318,552.054 		"/>
		<path id="path2999" inkscape:connector-curvature="0" d="M31.871-296.15h107.626v45.008H76.877v45.007h62.621v45.008H31.871
			V-296.15z"/>
		<path id="path3001" inkscape:connector-curvature="0" d="M161.021-296.15h107.625v39.137h-62.617v7.828h62.617v90.015H161.021
			v-41.094h62.618v-7.828h-62.618V-296.15z"/>
		<path id="path3003" inkscape:connector-curvature="0" d="M290.172-296.15h107.625v39.137H335.18v7.828h62.617v90.015H290.172
			v-41.094h62.621v-7.828h-62.621V-296.15z"/>
		<polygon id="polygon3005" fill="#FFFFFF" points="328.84,317.567 318.525,432.813 219.418,459.562 219.418,552.011 
			401.59,501.523 402.928,486.512 423.807,252.57 425.977,228.707 442.018,48.851 219.418,48.851 219.418,137.712 344.631,137.712 
			336.551,228.707 219.418,228.707 219.418,317.567 		"/>
	</g>
</g>
</svg>
