<?xml version="1.0" encoding="utf-8"?>
<!-- Generator: Adobe Illustrator 16.0.3, SVG Export Plug-In . SVG Version: 6.00 Build 0)  -->
<!DOCTYPE svg PUBLIC "-//W3C//DTD SVG 1.1//EN" "http://www.w3.org/Graphics/SVG/1.1/DTD/svg11.dtd">
<svg version="1.1" id="Capa_1" xmlns="http://www.w3.org/2000/svg" xmlns:xlink="http://www.w3.org/1999/xlink" x="0px" y="0px"
	 width="1000px" height="1000px" viewBox="-140 -255 1000 1000" enable-background="new -140 -255 1000 1000" xml:space="preserve">
<g>
	<g>
		<path fill="none" stroke="#00979C" stroke-width="59" d="M98.617-66.146C-35.577-76.828-148.323,82.018-93.291,204.782
			c53.621,133.207,255.406,169.33,351.36,62.652C351.06,176.277,386.9,36.016,500.775-35.949
			c115.709-79.021,301.972-4.403,324.549,136.028c22.013,134.477-122.904,265.283-253.995,225.773
			C474.388,303.98,404.821,221.15,365.312,133.945C316.629,50.691,252.989-38.207,153.649-60.784
			c-17.639-4.007-35.841-5.588-53.904-5.56L98.617-66.146z"/>
		<path fill="none" stroke="#00979C" stroke-width="25" d="M19.596,124.35h169.33"/>
		<path fill="none" stroke="#00979C" stroke-width="32" d="M538.874,124.35h141.108 M608.018,53.796v141.108"/>
	</g>
	<path fill="#00979C" stroke="#00979C" d="M-33.033,575.897l-9.03-32.456h-57.291l-9.313,32.456h-30.621l48.542-163.687h43.179
		L0.976,575.897H-33.033z M-70.284,441.844l-21.591,76.339h42.897L-70.284,441.844z M102.431,575.897
		c0,0-16.51-38.946-25.822-57.855c-5.405-8.127-16.087-11.316-25.4-10.018c-0.846,22.152-0.676,67.873-0.676,67.873H19.629V412.211
		c0,0,46.565-1.368,69.708,1.693c48.964,5.532,52.21,76.763,3.006,84.242c9.229,3.668,14.816,12.205,18.767,20.884l24.694,51.082
		c1.735,3.498,1.693,6.207-3.301,6.18L102.431,575.897z M94.783,460.047c-0.141-25.259-25.399-22.437-44.167-22.577v46.283
		C72.771,484.502,94.36,482.243,94.783,460.047z M274.583,533.564c-14.957,34.571-47.694,42.615-78.738,42.05h-37.958V411.928
		l57.713,0.283c71.4,2.329,73.94,79.304,58.842,121.918L274.583,533.564z M235.073,447.065
		c-14.393-12.363-30.196-9.836-46.283-9.836v112.463c14.11,0,29.492,1.13,41.486-7.619c25.54-16.087,22.295-77.046,4.727-94.966
		L235.073,447.065z M422.747,515.221c3.062,82.688-115.003,82.407-118.531,17.921c-2.159-19.756-0.38-39.511-0.959-59.266v-62.37
		h30.902l0.564,117.119c3.627,32.314,46.566,29.492,53.057,11.571c6.575-14.252,3.527-30.338,4.205-45.577v-83.113h30.902v103.715
		H422.747z M452.38,436.199V410.94h103.714v25.259h-36.123v113.452h36.123v25.539H452.38v-25.539h36.122V436.199H452.38z
		 M671.098,575.897l-53.056-119.097v119.097h-28.081V412.211h37.958l52.773,117.966c0.143-8.467,0.057-117.966,0.057-117.966h28.081
		v163.687H671.098z M836.194,561.786c-34.289,29.492-94.119,23-105.972-35.137c-16.228-88.333,31.607-139.132,98.211-109.5
		c40.921,23.001,38.663,117.686,7.761,145.342V561.786z M794.85,436.623c-29.21-0.776-33.442,29.068-34.571,43.46
		c-0.24,27.235-2.652,72.53,35.135,70.555c11.714,0,21.872-8.494,25.683-19.331C828.786,514.231,834.586,435.212,794.85,436.623
		L794.85,436.623z M802.328-89.57v3.303h7.268v19.19h3.752v-19.19h7.339v-3.303H802.328z M823.212-89.57v22.436h3.431v-19.19
		l6.067,19.19h3.385l5.786-18.767v18.767h3.386V-89.57h-5.362l-5.502,17.921l-5.644-17.921H823.212z"/>
</g>
</svg>
